<svg version="1" xmlns="http://www.w3.org/2000/svg" width="2730.667" height="2730.667" viewBox="0 0 2048.000000 2048.000000"><path d="M1020.6 3.9c-1.5 1.6-2.7 3.2-2.6 3.6.1.4-.2 1-.6 1.3-.4.4-.4 0 .1-.8.4-.8-2.1 1.4-5.5 5-9.5 9.9-36.8 38.5-43 45-3 3.2-12.7 13.3-21.5 22.5s-18.2 19-20.8 21.9c-2.7 2.8-12.2 12.7-21 22-8.9 9.3-18.4 19.2-21.2 22.1-2.7 2.9-12.2 12.8-21 22s-17.5 18.4-19.4 20.4c-1.9 2-10.9 11.4-20 21-9.1 9.5-19 19.8-22 23-6.9 7.3-33.9 35.5-41.6 43.6-3.3 3.4-13 13.6-21.5 22.5-8.5 9-17.7 18.7-20.5 21.5-11.6 12.1-38.1 39.9-41.7 43.8-2.2 2.3-11.6 12.1-20.9 21.8-9.4 9.7-19.2 20.1-22 23-2.8 3-12.6 13.2-21.7 22.8-9.2 9.6-18.8 19.6-21.3 22.3-2.5 2.6-4.9 4.8-5.2 4.8-.4 0-2.8-2.2-5.5-4.9l-4.7-5-31.8 31.5-31.7 31.5v126.4L619.6 746c516.3 516 638.5 638.5 638.1 639.9-.3.9-3.2 9.2-6.5 18.6-13.7 38.7-17.6 49.8-30.7 87-13.8 39.1-22.8 64.7-23.8 67.5-.4.8-3.4 9.4-6.8 19s-7.2 20.6-8.6 24.5c-1.3 3.8-8.3 23.6-15.4 44-7.2 20.3-14.1 39.9-15.4 43.5-2.3 6.4-4.8 13.4-12 34-2 5.8-4.2 11.8-4.8 13.5-.6 1.6-1.2 3.4-1.3 4-.1.5-3.5 10-7.4 21-7 19.4-19.3 54.4-21 59.5-.5 1.4-3.4 9.7-6.5 18.5s-8.3 23.4-11.5 32.5c-3.2 9.1-13.1 37.2-22 62.5-8.9 25.3-18.4 52.3-21.1 60-2.7 7.7-5.4 14.9-5.8 16-1.4 3.1-12.1 34.2-12.1 35.1 0 .4 1.6-1 3.5-3 1.9-2.1 3.2-4.2 2.9-4.8-.4-.6-.3-.8.3-.5 1.2.8 1.1.8 21-19.9 24.9-26.1 26.7-28 43.3-45.4 8.5-9 17.8-18.6 20.5-21.5 2.8-2.8 12-12.5 20.5-21.4 8.5-9 18.2-19.1 21.5-22.6 5.1-5.3 23.3-24.4 42-44 2.8-2.9 12.7-13.3 22.1-23.1 9.4-9.9 18.9-19.8 21-22 2.1-2.3 11.4-12 20.5-21.5 9.2-9.6 19-19.9 21.9-22.9 4.9-5.1 30.2-31.7 41.5-43.5 2.8-2.9 12.4-13 21.5-22.5s18.5-19.4 21-22c2.5-2.6 12.8-13.5 23-24.1 10.2-10.6 20.2-21.2 22.3-23.4 2.2-2.2 10.9-11.4 19.5-20.4 8.7-9 18.4-19.2 21.8-22.8l6.1-6.5 5.2 5.2c2.8 2.9 5.4 5.1 5.6 4.9.2-.2 14.5-14.4 31.6-31.4l31.1-31 .1-63.4v-63.3l-373.1-373c-205.3-205.1-373-373.3-372.8-373.7.3-.3 3-7.8 6-16.6 3.1-8.8 6.9-19.6 8.5-24 5.5-15.4 23.4-66 24.1-68.5.8-2.3 3-8.6 17.7-50 3-8.5 5.8-16.6 6.3-18 .4-1.4 3.1-9 6-17 2.8-8 6.2-17.7 7.5-21.5 1.3-3.9 3.8-10.8 5.5-15.5 1.7-4.7 3.7-10.3 4.5-12.5.7-2.2 7-20.2 14-40s13.8-39.2 15.2-43c1.3-3.9 8.7-25 16.4-47 7.8-22 14.9-42.3 15.9-45 1.6-4.2 13.3-37.5 32.2-91.5 2.2-6.3 4.7-13.3 5.5-15.5.9-2.2 2.2-5.8 2.9-8 .7-2.2 3.2-9.2 5.4-15.5 2.3-6.3 4.3-12 4.4-12.5.2-.6.6-1.7.9-2.5 1.5-3.7 9.8-27.7 10.2-29 .2-.8 1.5-4.7 3-8.5 1.5-3.9 2.8-7.7 3.1-8.5.4-1.7 9.5-27.8 14.8-42.3 1.9-5.3 3.4-9.7 3.2-9.7-.1 0-1.5 1.3-3 2.9zm-14.8 19.8c-.8 1-7.9 10.1-15.8 20.3-7.9 10.2-14.7 18.7-15 19-.3.3-1.8 2.3-3.5 4.5-3.1 4.2-4.3 5.7-6 7.8-.6.7-3.8 4.8-7.2 9.2-6.1 7.9-16.3 21-21.5 27.6-7.4 9.5-25.6 32.7-27.3 35-2.6 3.4-29.6 37.9-31.2 39.9-.7.8-8.9 11.4-18.3 23.5s-17.6 22.7-18.3 23.5c-.7.8-16.7 21.3-35.6 45.5-18.9 24.2-35.4 45.3-36.7 47-1.2 1.6-6.7 8.6-12 15.5-5.4 6.9-10.1 12.6-10.6 12.8-.4.2-.8 1-.8 1.7s-.3 1.5-.8 1.7c-.4.1-2.3 2.3-4.2 4.8-1.9 2.5-4 5.2-4.7 6-.7.8-13.7 17.5-28.9 37-29.4 37.8-33.2 42.6-35.1 45-.7.8-7.4 9.4-14.9 19-7.4 9.6-14.8 19.1-16.4 21-1.6 2-6.4 8.1-10.7 13.7-4.3 5.6-18.4 23.7-31.3 40.3l-23.5 30.1-.3-12.6-.3-12.5 20.6-25.3c11.4-13.8 21.9-26.8 23.5-28.7 1.6-1.9 5.5-6.7 8.7-10.6 3.2-3.8 7.2-8.7 8.8-10.8 1.7-2.2 3.5-4.4 4-5 .6-.6 5.1-6.1 10-12.1 10-12.4 22.6-27.7 25.8-31.5 1.2-1.4 6.9-8.4 12.6-15.5 5.8-7.2 10.8-13.2 11.1-13.5.3-.3 5.3-6.3 11.1-13.5 5.7-7.1 11.2-13.9 12.1-15 .9-1.1 7.4-9 14.3-17.5 7-8.5 14.1-17.3 16-19.5 1.8-2.2 19.8-24.3 40-49 20.2-24.8 38.4-47 40.5-49.5 2.1-2.5 11.9-14.5 21.9-26.8 22.6-27.7 52.9-64.9 57.5-70.5 1.9-2.3 7.2-8.7 11.6-14.2 4.5-5.5 8.9-10.9 9.9-12 .9-1.1 17.3-21.2 36.5-44.8 19.2-23.5 35.2-42.7 35.4-42.7.3 0-.2.8-1 1.7zM1473.2 1487l-.1 12-17.8 21.8c-9.8 11.9-20.5 25.1-23.8 29.2-3.3 4.1-6.2 7.7-6.5 8-.4.3-5.5 6.6-11.6 14-6 7.4-11.7 14.4-12.6 15.5-.9 1.1-7.2 8.7-13.9 17-6.7 8.2-13.9 17-15.9 19.5-14.6 17.7-39.1 47.6-47 57.5-5.2 6.5-10 12.3-10.5 12.9-.6.6-5.1 6-10 12.1-4.9 6-10.9 13.5-13.4 16.5-7.1 8.4-7.2 8.5-20.1 24.5-13.7 16.8-18 22.1-19.5 23.8-.6.7-6.9 8.4-14 17.2-7.1 8.8-13.2 16.2-13.5 16.5-.3.3-4.4 5.2-9 11-4.7 5.8-8.9 11-9.5 11.6-1.2 1.4.8-1-24.9 30.4-11.4 14-22.2 27.3-24.1 29.5-1.8 2.2-15.7 19.3-31 38s-30.3 37.1-33.4 40.9c-9.3 11.3-39 47.8-42.4 52.1-1.8 2.2-4.7 5.5-6.5 7.5-2.3 2.4-2 1.8 1-2 2.4-3.1 5.4-7.1 6.8-8.9 1.4-1.8 3.7-4.7 5.1-6.5 1.4-1.7 7.4-9.4 13.4-17.1 6.1-7.7 15.9-20.4 22-28.1 6-7.8 22-28.3 35.4-45.5 13.5-17.3 25-31.9 25.5-32.5.6-.7 2-2.4 3.1-3.9 1.1-1.6 11.4-14.8 22.8-29.4 11.5-14.6 21.8-27.9 23-29.4 2.2-2.9 9-11.5 13.9-17.8 1.5-1.9 11.3-14.4 21.8-27.9 10.5-13.5 20-25.6 21.1-27 1.1-1.4 3-3.8 4.2-5.4 1.9-2.4 29.5-37.8 37.9-48.6 1.6-1.9 6.6-8.5 11.3-14.5 4.7-6.1 9.1-11.7 9.8-12.5 1.3-1.5 14.6-18.7 22.2-28.5 3.4-4.3 22.7-29.1 26-33.3.5-.7 1.5-1.8 2-2.5.6-.7 8.2-10.4 17-21.7 14.3-18.3 34.6-44.4 40.9-52.5 23.7-30.2 36.8-47.1 40-51.3 2.2-2.8 4.2-5 4.4-4.7.3.2.4 5.8.4 12.5zM1039 2030.4c0 .2-.8 1-1.7 1.7-1.6 1.3-1.7 1.2-.4-.4 1.3-1.6 2.1-2.1 2.1-1.3z"/><path d="M512 768.7v42.9l105.3 105.1c57.8 57.7 106 105.9 106.9 107 1.7 1.9 1.6 1.9-6.7 1.8-4.7-.1-8.5.1-8.5.3 0 .2 23.3 23.7 51.8 52.2l51.7 51.7 51.7.1h51.7l-5.9-6.1c-3.3-3.4-94.1-94.3-202-202L512 725.9v42.8zM1133 918.7c0 .6 402.6 403.3 403.1 403.3.2 0 .4-19.1.3-42.5l-.1-42.4-105.4-105.5c-58-57.9-106.2-106.2-107.1-107.2-1.6-1.8-1.4-1.9 6.8-1.7 4.6.2 8.4 0 8.4-.3 0-.4-23.3-23.9-51.8-52.4l-51.7-51.8-51.3.1c-28.1 0-51.2.2-51.2.4z"/></svg>