<?xml version="1.0" standalone="no"?>
<!DOCTYPE svg PUBLIC "-//W3C//DTD SVG 20010904//EN"
 "http://www.w3.org/TR/2001/REC-SVG-20010904/DTD/svg10.dtd">
<svg version="1.0" xmlns="http://www.w3.org/2000/svg"
 width="8000.000000pt" height="8000.000000pt" viewBox="0 0 8000.000000 8000.000000"
 preserveAspectRatio="xMidYMid meet">
<metadata>
Created by potrace 1.11, written by Peter Selinger 2001-2013
</metadata>
<g transform="translate(0.000000,8000.000000) scale(0.100000,-0.100000)"
fill="#000000" stroke="none">
<path d="M39959 79953 c-19 -21 -33 -41 -31 -45 1 -5 -2 -8 -7 -8 -9 0 -109
-100 -252 -251 -78 -81 -403 -422 -444 -464 -42 -44 -298 -312 -407 -427 -35
-36 -131 -138 -214 -225 -84 -87 -176 -183 -205 -214 -83 -88 -357 -375 -424
-444 -101 -106 -379 -397 -429 -450 -27 -27 -123 -129 -215 -225 -93 -96 -189
-197 -215 -225 -26 -27 -117 -122 -201 -210 -84 -88 -172 -181 -196 -206 -24
-26 -120 -127 -214 -224 -93 -98 -192 -201 -220 -230 -103 -108 -362 -379
-410 -430 -27 -29 -126 -132 -220 -230 -93 -98 -188 -197 -210 -220 -108 -113
-375 -393 -414 -434 -24 -25 -125 -131 -225 -236 -99 -104 -194 -204 -211
-221 -16 -18 -100 -106 -187 -196 -86 -89 -177 -185 -203 -213 -26 -27 -127
-133 -225 -235 -97 -102 -215 -225 -262 -275 -48 -49 -113 -117 -145 -151 -32
-34 -132 -139 -223 -234 -91 -96 -217 -227 -280 -293 -63 -66 -126 -132 -140
-147 -14 -15 -106 -111 -205 -215 -249 -260 -242 -252 -415 -434 -85 -89 -183
-193 -218 -229 -35 -37 -132 -139 -217 -227 -84 -88 -176 -185 -205 -215 -29
-30 -125 -131 -215 -225 -89 -93 -182 -190 -205 -215 -23 -25 -113 -119 -200
-210 -87 -91 -183 -192 -215 -225 -31 -33 -129 -136 -218 -229 -231 -240 -421
-439 -622 -651 -36 -38 -141 -148 -233 -244 -92 -96 -178 -187 -192 -201 -14
-15 -106 -111 -205 -215 -99 -103 -200 -209 -225 -235 -25 -26 -115 -121 -202
-211 -86 -90 -179 -189 -208 -219 -28 -30 -90 -95 -138 -145 -47 -49 -138
-144 -201 -211 -118 -122 -433 -452 -506 -529 -22 -23 -114 -120 -205 -215
-91 -94 -187 -196 -215 -225 -95 -100 -380 -399 -425 -446 -112 -117 -372
-389 -620 -649 -91 -96 -187 -197 -215 -225 -27 -29 -120 -125 -205 -215 -85
-89 -180 -188 -210 -220 -46 -48 -183 -192 -433 -454 -27 -28 -119 -125 -205
-215 -87 -90 -177 -184 -201 -210 -24 -25 -120 -127 -215 -225 -94 -98 -189
-198 -211 -221 -22 -23 -115 -120 -206 -216 -92 -96 -190 -199 -219 -229 -29
-30 -125 -131 -215 -225 -89 -93 -182 -191 -206 -216 -45 -47 -303 -318 -400
-420 -30 -31 -130 -136 -224 -234 -93 -97 -172 -182 -174 -187 -2 -6 -97 83
-212 198 l-208 208 -1230 -1233 -1231 -1234 0 -2465 0 -2466 14572 -14566
14571 -14566 -112 -319 c-62 -176 -151 -426 -197 -556 -46 -130 -84 -239 -84
-242 0 -3 -5 -18 -11 -34 -6 -15 -11 -30 -11 -33 0 -3 -4 -13 -10 -23 -5 -10
-11 -26 -13 -35 -2 -9 -36 -107 -76 -217 -65 -183 -127 -358 -224 -635 -20
-58 -49 -141 -65 -185 -81 -229 -307 -870 -411 -1170 -39 -110 -74 -209 -79
-220 -5 -11 -30 -81 -55 -155 -65 -187 -160 -460 -172 -490 -6 -14 -34 -95
-63 -180 -29 -85 -57 -161 -63 -167 -5 -7 -7 -13 -4 -13 3 0 -1 -17 -9 -37 -9
-20 -18 -44 -20 -52 -2 -9 -17 -54 -34 -101 -17 -47 -35 -96 -39 -110 -23 -69
-143 -408 -150 -425 -5 -11 -18 -47 -29 -80 -11 -33 -47 -136 -80 -230 -192
-546 -317 -899 -339 -960 -14 -38 -56 -158 -93 -265 -116 -333 -187 -534 -200
-565 -6 -16 -13 -37 -15 -45 -2 -8 -25 -73 -50 -145 -26 -71 -59 -166 -74
-210 -64 -183 -293 -833 -307 -870 -9 -22 -18 -47 -20 -55 -3 -13 -38 -110
-57 -160 -3 -8 -40 -114 -82 -235 -42 -121 -79 -227 -82 -235 -4 -8 -7 -17 -7
-20 -1 -4 -40 -115 -158 -450 -17 -47 -34 -94 -38 -105 -12 -28 -71 -198 -74
-210 -2 -5 -6 -17 -9 -25 -3 -8 -15 -43 -26 -77 -11 -33 -25 -72 -31 -85 -5
-12 -41 -115 -80 -228 -39 -113 -74 -214 -79 -225 -5 -11 -16 -40 -24 -65 -9
-25 -41 -117 -72 -205 -31 -88 -63 -178 -70 -200 -7 -22 -34 -98 -60 -170 -25
-71 -54 -155 -65 -185 -10 -30 -42 -120 -70 -200 -28 -80 -66 -188 -85 -240
-18 -52 -41 -115 -50 -140 -9 -25 -18 -49 -19 -55 -2 -5 -6 -17 -9 -25 -3 -8
-51 -145 -107 -305 -56 -159 -126 -357 -155 -440 -29 -82 -92 -262 -140 -400
-48 -137 -91 -259 -95 -270 -5 -11 -29 -79 -54 -152 -26 -73 -62 -176 -82
-230 -20 -54 -37 -102 -38 -108 -2 -5 -6 -17 -9 -25 -10 -26 -199 -565 -201
-575 -2 -5 -8 -23 -14 -38 -7 -16 -12 -34 -12 -41 0 -7 -3 -15 -6 -19 -5 -5
-66 -171 -78 -212 -2 -5 -6 -17 -9 -25 -3 -8 -21 -60 -41 -115 -19 -55 -139
-395 -266 -755 -127 -360 -233 -663 -235 -673 -2 -9 -6 -21 -10 -26 -3 -5 -36
-99 -74 -208 -38 -109 -97 -277 -131 -373 -86 -244 -112 -317 -160 -455 -106
-305 -222 -632 -230 -650 -5 -11 -23 -60 -39 -110 -17 -49 -51 -148 -76 -220
-26 -71 -55 -155 -65 -185 -10 -30 -37 -107 -60 -170 -23 -63 -56 -158 -75
-210 -18 -52 -54 -156 -80 -230 -26 -74 -69 -196 -95 -270 -86 -240 -301 -852
-332 -945 -17 -49 -35 -101 -41 -115 -6 -14 -11 -27 -11 -30 -1 -3 -11 -32
-23 -65 -12 -33 -40 -114 -63 -180 -23 -66 -45 -129 -50 -140 -11 -24 -299
-844 -305 -865 -2 -8 -22 -67 -45 -130 -23 -63 -50 -142 -61 -175 -11 -33 -23
-67 -26 -75 -4 -8 -7 -17 -8 -20 -1 -3 -5 -12 -8 -20 -4 -8 -34 -94 -68 -190
-89 -256 -177 -506 -263 -750 -42 -118 -79 -222 -81 -230 -2 -8 -36 -105 -75
-215 -39 -110 -82 -231 -96 -270 -13 -38 -89 -254 -169 -480 -81 -226 -150
-423 -155 -440 -4 -16 -33 -100 -65 -185 -31 -85 -58 -162 -60 -170 -2 -8 -25
-73 -50 -145 -26 -72 -53 -148 -60 -170 -7 -22 -17 -49 -21 -60 -4 -11 8 -2
27 19 18 22 33 43 32 48 -2 4 3 7 10 5 6 -1 11 4 10 10 -2 7 1 12 6 10 6 -1
40 30 77 68 281 295 407 427 448 470 26 28 119 124 205 215 87 91 180 188 207
216 114 120 354 372 412 433 101 105 361 377 425 445 81 85 373 391 484 506
50 52 115 120 145 152 62 66 328 345 408 428 30 32 129 135 220 231 91 95 188
196 215 225 28 28 118 123 200 209 174 183 194 204 415 435 91 95 188 196 215
225 28 29 127 133 220 230 94 98 215 226 270 284 55 57 120 126 145 152 45 46
291 304 410 429 34 36 134 141 223 234 89 93 182 190 207 216 25 26 119 125
210 220 91 96 176 185 190 200 14 14 108 113 210 220 102 106 203 212 225 235
53 56 180 189 395 414 96 101 198 207 225 236 116 122 374 392 425 445 30 31
132 138 225 236 94 98 213 224 266 279 53 55 118 123 144 150 26 28 118 124
205 215 87 91 177 185 200 210 23 25 120 126 215 225 94 99 190 199 213 223
22 24 112 118 200 210 88 92 186 194 217 227 32 33 125 131 209 218 83 88 177
187 209 220 32 34 127 133 210 220 84 88 174 182 201 210 27 29 121 128 210
221 88 92 186 194 216 226 30 32 127 133 215 225 88 92 180 188 204 214 24 25
121 127 216 226 95 99 187 196 205 215 18 19 110 116 205 215 95 99 192 200
215 225 23 25 116 122 205 215 90 94 186 195 215 225 29 30 125 131 213 224
89 93 187 195 217 227 30 32 123 128 205 214 83 87 168 176 189 199 22 22 114
119 205 215 91 95 191 199 221 231 30 32 130 136 221 231 91 96 185 194 208
219 24 25 116 122 205 215 90 94 183 191 207 216 24 26 116 122 204 214 88 92
186 195 218 229 32 33 129 135 215 225 168 176 177 185 412 432 85 89 171 179
190 199 19 20 89 93 155 162 111 115 361 378 485 508 29 30 123 129 209 219
86 90 179 187 206 216 28 29 124 130 215 224 91 95 168 178 172 184 9 14 16 8
236 -215 97 -98 179 -178 182 -178 4 0 561 552 1238 1228 l1230 1227 0 2467 0
2466 -6236 6236 c-3431 3429 -9988 9983 -14572 14565 l-8334 8330 27 83 c28
84 72 207 87 243 4 11 31 85 58 165 122 350 245 700 267 760 24 66 101 285
225 640 37 107 75 213 83 235 9 22 36 101 62 175 25 74 50 144 55 155 7 16 19
50 25 75 1 3 4 12 8 20 19 50 89 248 92 262 2 9 8 25 13 35 6 10 10 22 10 26
0 4 5 20 10 35 13 33 49 135 137 387 121 342 176 498 210 595 18 52 68 194
110 315 42 121 82 236 90 255 17 41 154 428 160 450 5 20 89 257 104 293 6 16
11 31 11 34 0 3 38 112 84 242 46 130 92 259 101 286 10 28 26 73 35 100 27
74 133 376 201 570 33 94 78 222 100 285 77 219 168 476 209 590 23 63 43 122
45 130 2 8 74 213 160 455 86 242 158 445 159 450 2 6 6 17 9 25 3 8 51 143
106 300 55 157 120 344 146 415 26 72 52 149 59 171 7 23 25 72 39 110 14 38
58 161 97 274 39 113 74 212 77 220 21 55 85 238 88 250 5 15 39 112 108 305
19 55 135 384 257 730 122 347 228 648 236 670 9 22 26 71 39 110 13 38 40
115 60 170 20 55 38 107 40 115 2 8 20 60 40 115 43 118 103 290 115 325 4 14
31 90 60 170 28 80 78 219 110 310 63 180 67 191 83 235 6 17 12 35 13 40 1 6
22 66 47 135 94 263 236 668 257 730 12 36 25 74 30 85 10 23 55 150 115 325
67 193 152 432 165 465 6 17 13 37 15 45 3 13 62 178 101 285 8 22 16 45 17
50 2 6 19 55 39 110 20 55 59 168 88 250 29 83 72 206 96 275 43 121 83 234
157 445 20 55 77 217 127 360 150 423 221 625 250 710 38 110 147 418 172 485
11 30 21 60 22 65 2 6 6 17 9 25 3 8 11 31 17 50 7 19 30 85 51 145 22 61 62
173 89 250 27 77 65 185 85 240 19 55 37 107 40 115 2 8 65 188 140 400 76
212 145 410 155 440 10 30 40 114 65 185 26 72 80 227 121 345 41 118 79 224
84 235 5 11 20 54 34 95 23 69 96 275 109 310 16 41 228 647 231 660 2 8 22
65 44 125 22 61 73 202 112 315 40 113 92 261 117 330 24 69 50 143 57 165 8
22 55 157 106 300 51 143 105 296 120 340 16 44 58 163 93 265 153 436 275
783 427 1210 88 250 163 462 165 470 2 8 15 47 29 85 15 39 28 77 31 85 2 8 9
29 15 45 7 17 41 113 77 215 35 102 70 202 77 223 8 20 13 37 11 37 -1 0 -17
-17 -36 -37z m-89 -127 c0 -2 -8 -10 -17 -17 -16 -13 -17 -12 -4 4 13 16 21
21 21 13z m-62 -78 c-18 -24 -35 -45 -38 -48 -6 -5 -23 -28 -454 -580 -152
-195 -288 -368 -300 -385 -13 -16 -117 -149 -231 -295 -114 -146 -214 -274
-223 -285 -10 -11 -37 -47 -62 -80 -25 -33 -47 -62 -50 -65 -3 -3 -21 -25 -40
-50 -19 -25 -40 -52 -47 -60 -7 -8 -81 -103 -164 -210 -83 -107 -161 -207
-173 -221 -24 -30 -38 -48 -131 -169 -37 -47 -72 -92 -78 -100 -7 -8 -77 -98
-157 -200 -561 -719 -732 -939 -869 -1114 -86 -109 -177 -226 -204 -260 -143
-184 -200 -258 -392 -503 -115 -147 -213 -272 -217 -278 -8 -9 -96 -122 -290
-371 -43 -54 -132 -169 -198 -254 -67 -85 -126 -162 -133 -170 -7 -8 -45 -58
-86 -110 -41 -52 -78 -96 -83 -98 -4 -2 -8 -10 -8 -17 0 -7 -3 -15 -8 -17 -4
-1 -77 -93 -163 -203 -353 -454 -530 -681 -542 -695 -14 -17 -495 -633 -887
-1136 -131 -169 -321 -411 -363 -464 -7 -8 -59 -76 -117 -150 -58 -74 -110
-142 -117 -150 -7 -8 -98 -125 -203 -260 -105 -135 -201 -258 -214 -275 -13
-16 -124 -158 -247 -315 -122 -157 -235 -301 -250 -320 -15 -19 -192 -246
-394 -505 -201 -258 -378 -485 -393 -504 -15 -19 -127 -163 -250 -320 -123
-157 -235 -301 -250 -320 -15 -19 -111 -143 -215 -275 -103 -133 -193 -248
-200 -256 -7 -8 -35 -44 -62 -80 -27 -36 -55 -72 -62 -80 -7 -8 -83 -105 -168
-215 -86 -110 -167 -213 -179 -230 -130 -165 -158 -202 -169 -215 -7 -8 -75
-96 -152 -195 -77 -99 -145 -187 -152 -195 -28 -34 -500 -640 -523 -670 -28
-38 -72 -92 -80 -100 -3 -3 -18 -23 -35 -45 -16 -22 -31 -42 -34 -45 -4 -3
-26 -32 -51 -65 -53 -70 -56 -74 -113 -145 -24 -30 -61 -78 -83 -106 -75 -98
-279 -360 -359 -460 -44 -55 -89 -113 -100 -128 -11 -16 -41 -54 -66 -85 -25
-31 -180 -229 -345 -441 -164 -212 -303 -390 -309 -396 -5 -6 -19 -23 -30 -39
-11 -15 -35 -46 -53 -69 -18 -22 -39 -48 -45 -56 -7 -8 -75 -96 -152 -195 -77
-99 -145 -187 -152 -195 -7 -8 -42 -53 -78 -100 -37 -47 -72 -92 -78 -100 -60
-77 -211 -270 -336 -430 -83 -107 -157 -202 -164 -210 -7 -8 -100 -127 -207
-265 -107 -137 -197 -252 -200 -255 -3 -3 -25 -32 -49 -65 -25 -33 -47 -62
-51 -65 -5 -5 -150 -189 -195 -249 -11 -14 -24 -31 -30 -37 -5 -7 -18 -23 -29
-38 -16 -23 -244 -314 -329 -421 -18 -22 -45 -58 -61 -80 -16 -22 -32 -42 -35
-45 -3 -3 -20 -23 -37 -45 -17 -22 -96 -123 -175 -225 -80 -102 -225 -288
-324 -415 -99 -126 -183 -234 -187 -240 -5 -5 -56 -71 -114 -145 -58 -74 -110
-142 -117 -150 -23 -29 -454 -581 -898 -1150 -117 -151 -219 -282 -226 -290
-7 -8 -56 -72 -110 -141 -54 -69 -110 -141 -125 -160 -81 -103 -188 -241 -223
-286 -21 -29 -42 -53 -45 -53 -4 0 -7 223 -7 496 l0 496 165 201 c90 111 179
220 197 242 41 50 457 559 589 720 54 66 132 163 174 215 43 52 83 101 90 109
7 7 50 59 95 115 80 99 393 482 426 521 9 11 167 205 351 430 184 226 342 419
352 430 28 33 171 209 203 249 17 21 37 46 45 56 8 10 29 36 47 57 17 21 48
58 68 83 20 25 53 65 73 89 32 39 265 324 352 431 19 24 91 111 159 194 68 83
138 169 155 190 17 21 43 53 57 70 28 33 402 491 422 516 25 32 102 125 107
130 3 3 33 40 68 83 35 43 70 86 77 95 8 10 102 125 210 257 108 132 204 249
213 260 9 11 44 54 77 95 33 41 70 86 82 100 11 14 137 167 278 340 141 173
264 324 273 335 10 11 58 69 107 130 50 60 97 119 106 130 9 11 70 85 135 165
64 80 125 153 133 162 9 9 21 23 26 30 6 7 39 49 75 93 36 44 69 86 75 93 5 7
15 18 20 25 6 7 30 37 55 67 25 30 49 60 55 66 5 6 24 28 40 49 17 21 35 43
40 49 6 6 28 34 50 61 22 28 47 59 56 70 52 62 238 290 474 580 148 182 271
332 275 335 3 3 32 39 65 80 33 41 70 86 82 100 11 14 146 178 298 365 152
187 287 351 298 365 12 14 34 42 49 62 15 20 33 42 40 50 7 7 33 38 58 68 25
30 47 57 50 60 3 3 21 25 40 50 19 25 37 47 40 50 3 3 35 41 70 85 36 44 72
89 82 100 9 11 53 65 98 120 45 55 97 118 115 140 18 22 78 96 135 165 103
127 130 159 233 285 32 38 63 77 70 85 48 60 375 460 412 505 18 22 127 155
241 295 114 140 278 341 364 445 86 105 237 289 335 410 99 121 184 225 190
231 5 6 24 28 40 50 17 21 55 68 85 104 30 37 71 86 90 110 106 132 549 673
589 719 25 30 52 64 60 75 13 18 58 74 140 171 10 12 35 43 57 70 21 28 49 61
61 75 11 14 87 106 168 205 80 99 159 196 175 215 122 148 261 318 540 660
177 217 337 413 356 435 18 22 99 121 179 220 81 99 161 198 180 220 18 22 48
58 66 81 19 22 50 60 69 84 19 24 69 85 110 135 41 50 86 105 100 122 14 17
69 85 122 150 78 95 445 544 718 878 40 49 276 338 425 520 18 22 79 96 135
165 131 160 133 162 356 435 103 127 247 302 318 390 72 88 135 165 141 171 5
6 22 26 37 45 22 28 369 453 493 604 18 22 66 81 106 130 40 50 76 92 79 95 3
3 30 37 60 75 30 39 59 75 65 81 16 18 64 76 246 299 94 116 178 219 187 230
10 11 57 70 107 130 159 196 217 265 221 265 3 0 -10 -19 -28 -42z m17735
-57804 c0 -291 -4 -499 -10 -503 -5 -3 -62 -71 -127 -151 -64 -80 -130 -161
-146 -180 -165 -201 -244 -298 -259 -315 -9 -11 -64 -78 -121 -150 -58 -71
-115 -141 -127 -155 -11 -14 -67 -81 -123 -150 -56 -69 -109 -134 -118 -145
-9 -11 -46 -56 -82 -100 -35 -44 -72 -89 -82 -100 -9 -11 -34 -40 -54 -65 -19
-25 -51 -63 -69 -85 -18 -22 -135 -166 -261 -320 -125 -154 -261 -320 -302
-370 -113 -138 -121 -147 -155 -189 -120 -148 -272 -334 -286 -351 -9 -11 -90
-110 -180 -220 -90 -110 -173 -211 -185 -225 -18 -22 -49 -60 -113 -140 -7 -8
-38 -47 -70 -85 -32 -39 -174 -212 -315 -385 -639 -783 -865 -1060 -895 -1096
-122 -151 -511 -625 -535 -653 -15 -19 -43 -53 -61 -75 -35 -44 -433 -531
-454 -556 -7 -8 -119 -145 -249 -305 -130 -159 -248 -304 -263 -321 -14 -18
-57 -71 -96 -118 -66 -82 -261 -320 -308 -377 -12 -14 -35 -43 -52 -64 -16
-21 -34 -43 -40 -49 -5 -6 -28 -34 -50 -61 -22 -28 -47 -59 -57 -70 -48 -59
-177 -216 -205 -251 -17 -21 -119 -145 -225 -275 -310 -378 -936 -1146 -977
-1197 -14 -19 -33 -41 -42 -50 -8 -9 -44 -53 -80 -97 -35 -43 -74 -91 -85
-105 -12 -14 -176 -214 -364 -445 -188 -231 -351 -431 -363 -445 -12 -14 -49
-59 -82 -100 -118 -145 -419 -515 -425 -520 -3 -3 -23 -27 -45 -55 -22 -27
-44 -55 -50 -61 -9 -10 -196 -239 -374 -458 -41 -50 -191 -235 -335 -410 -144
-175 -302 -369 -351 -430 -217 -266 -495 -606 -513 -627 -11 -13 -75 -91 -142
-174 -67 -82 -137 -168 -155 -190 -18 -22 -110 -134 -204 -250 -95 -115 -177
-217 -184 -225 -7 -8 -174 -213 -372 -455 -198 -242 -367 -449 -377 -460 -9
-11 -71 -87 -138 -170 -67 -82 -137 -168 -155 -190 -19 -22 -79 -96 -135 -165
-56 -69 -109 -134 -118 -145 -72 -87 -109 -132 -119 -145 -19 -24 -82 -101
-118 -145 -54 -64 -187 -228 -220 -270 -16 -21 -35 -43 -41 -49 -5 -6 -50 -60
-99 -120 -48 -60 -96 -119 -106 -130 -10 -12 -83 -102 -164 -201 -80 -99 -161
-198 -179 -220 -26 -31 -458 -559 -629 -769 -180 -221 -234 -287 -263 -321
-18 -22 -99 -121 -179 -220 -81 -99 -162 -198 -180 -220 -18 -22 -97 -119
-176 -215 -78 -96 -170 -208 -203 -249 -34 -41 -104 -126 -156 -191 -52 -64
-232 -284 -400 -490 -168 -205 -340 -416 -383 -469 -43 -53 -86 -105 -95 -116
-10 -11 -97 -117 -193 -236 -97 -118 -185 -226 -197 -240 -29 -35 -290 -356
-336 -414 -22 -28 -50 -60 -62 -73 -12 -12 -32 -38 -45 -57 -13 -19 -27 -35
-31 -35 -4 0 9 22 30 49 113 147 236 306 307 395 45 55 103 130 130 166 27 36
52 67 55 70 3 3 35 43 70 90 36 47 68 87 71 90 3 3 68 86 144 185 77 99 142
182 145 185 3 3 19 23 36 45 16 22 34 46 41 55 7 8 44 56 82 105 39 50 75 95
79 100 4 6 96 123 203 260 299 384 303 389 314 401 5 7 35 44 65 84 58 76 210
271 238 305 10 11 37 47 62 80 25 33 47 62 50 65 3 3 32 39 64 80 31 41 69 90
84 109 15 19 71 91 125 160 54 69 108 140 121 156 13 17 54 68 90 115 37 47
79 100 93 118 14 18 86 110 160 205 73 94 139 179 146 187 7 8 26 33 42 55 17
22 38 49 47 60 9 11 150 191 313 400 163 209 308 395 323 414 15 19 80 102
144 185 65 83 143 183 173 221 30 39 93 120 140 180 47 61 91 117 98 125 7 8
59 76 117 150 57 74 107 137 110 140 3 3 18 23 35 45 16 22 34 45 40 51 5 6
19 23 30 39 11 15 32 42 46 59 22 27 428 546 528 677 20 25 99 127 176 225 77
98 163 208 192 245 80 104 300 386 362 465 92 116 110 140 246 314 72 92 200
256 285 365 85 108 164 209 175 224 11 14 141 181 289 371 148 190 312 399
363 465 52 66 99 127 106 135 7 8 59 76 117 150 58 74 156 200 219 280 62 80
124 159 137 175 35 46 933 1196 959 1230 13 17 103 131 199 255 97 124 211
270 254 325 43 55 168 215 277 355 174 224 289 371 328 420 7 8 100 128 207
265 107 138 197 252 200 255 3 3 17 21 30 40 13 19 27 37 30 40 3 3 71 88 150
190 79 102 176 226 215 275 39 50 118 151 175 225 120 155 121 157 135 173 6
7 24 30 40 52 17 22 32 42 35 45 4 3 53 66 110 140 57 74 110 142 117 150 7 8
27 33 44 55 17 22 41 54 54 70 13 17 52 66 87 111 35 44 75 96 90 115 15 19
280 358 588 754 309 396 615 788 679 870 65 83 223 285 351 450 129 165 237
302 240 305 3 3 18 23 35 45 16 22 32 42 35 45 3 3 19 23 35 45 17 22 57 74
90 116 33 42 72 91 86 110 44 56 490 628 549 704 30 39 58 75 62 80 7 9 57 72
91 115 7 8 41 53 77 100 36 47 67 87 70 90 5 4 54 68 82 105 4 6 23 28 40 51
69 86 129 163 308 394 66 85 131 169 144 185 34 41 146 186 171 219 11 15 27
36 35 46 8 9 83 104 165 210 162 207 411 526 450 576 34 42 183 234 410 525
104 134 194 249 200 256 5 6 20 24 31 40 21 28 284 364 307 393 7 8 44 56 82
105 90 116 83 107 103 132 10 12 27 34 38 48 10 15 27 36 37 48 10 12 42 52
70 89 28 37 53 65 56 63 2 -3 4 -228 4 -501z m-17335 -21704 c-7 -11 -17 -20
-22 -20 -5 0 -1 9 9 20 10 11 20 20 22 20 2 0 -2 -9 -9 -20z"/>
<path d="M20000 49982 l0 -1668 4182 -4179 4182 -4180 -347 -5 -347 -5 2037
-2037 2038 -2036 2019 0 2018 1 -7888 7888 c-4339 4339 -7890 7889 -7891 7889
-2 0 -3 -751 -3 -1668z"/>
<path d="M52109 36248 c4339 -4339 7892 -7888 7894 -7888 3 0 5 749 5 1663 l0
1664 -4166 4165 c-2292 2291 -4175 4174 -4185 4185 -17 20 -16 20 323 20 187
0 342 2 345 4 2 3 -911 920 -2030 2039 l-2035 2035 -2020 0 -2021 0 7890
-7887z"/>
</g>
</svg>
