<svg width="250" height="250" fill="none" xmlns="http://www.w3.org/2000/svg"><path d="M0 51.6c0-20.21 0-30.316 4.67-37.675a30 30 0 0 1 9.255-9.255C21.285 0 31.39 0 51.6 0h146.8c20.211 0 30.316 0 37.675 4.67a30.004 30.004 0 0 1 9.255 9.255C250 21.285 250 31.39 250 51.6v146.8c0 20.211 0 30.316-4.67 37.675a30.007 30.007 0 0 1-9.255 9.255C228.716 250 218.611 250 198.4 250H51.6c-20.21 0-30.316 0-37.675-4.67a30.004 30.004 0 0 1-9.255-9.255C0 228.716 0 218.611 0 198.4V51.6Z" fill="#000"/><path fill-rule="evenodd" clip-rule="evenodd" d="M151.357 26.066c-1.591 2.413-2.611 4.052-6.467 10.391l-4.216 6.923c-4.807 7.89-4.514 7.405-9.243 15.28-2.345 3.905-4.263 7.146-4.263 7.204 0 .058 1.36.186 3.023.284 3.779.224 8.29.919 12.306 1.896 1.701.414 3.238.755 3.415.758.419.007.533-.442 1.355-5.326l1.687-10.026a957.436 957.436 0 0 1 1.965-11.203 679.268 679.268 0 0 0 1.442-8.136c.262-1.568.577-2.757.702-2.644.518.473 2.162 3.78 5.084 10.23 4.52 9.978 10.75 24.193 11.494 26.23.355.969 1.389 3.574 2.299 5.79.91 2.215 2.378 5.98 3.263 8.366.885 2.387 1.684 4.34 1.776 4.343.307.008 1.921-3.996 2.78-6.897 1.539-5.197 1.741-6.521 1.887-12.358l.139-5.539-2.486-3.19c-2.953-3.789-11.219-14.079-16.548-20.6-2.093-2.562-5.007-6.13-6.474-7.93-1.467-1.8-3.017-3.642-3.442-4.093L152.06 25l-.703 1.066Zm-64.125 4.11c.003.686.124 2.266.27 3.512.146 1.246.528 5.72.849 9.944.32 4.223.828 10.568 1.13 14.098.3 3.531.57 7.468.599 8.749.029 1.28.172 2.329.317 2.329.146 0 1.197-.78 2.336-1.732 2.237-1.87 7.255-5.407 11.089-7.817 6.463-4.064 8.076-4.93 14.415-7.748 1.663-.74 3.02-1.427 3.015-1.528-.005-.1-1.556-1.085-3.446-2.188-3.181-1.857-6.414-3.843-7.1-4.362-.324-.245-4.507-2.762-10.4-6.256a359.902 359.902 0 0 1-6.455-3.919c-1.384-.871-3.019-1.835-3.632-2.141a11.885 11.885 0 0 1-2.053-1.371l-.939-.814.005 1.245Zm37.404 24.859c-8.697 3.582-18.561 8.841-25.54 13.618l-3.656 2.5a39.07 39.07 0 0 0-1.744 1.262c-.386.304-1.611 1.156-2.721 1.893-1.943 1.289-2.118 1.495-4.674 5.535a547.885 547.885 0 0 0-3.725 5.958 223.99 223.99 0 0 1-2.53 4.028l-1.46 2.266-.627 4.657c-.843 6.261-1.634 10.87-1.903 11.086-.121.098-1.802 1.152-3.736 2.342a501.764 501.764 0 0 0-5.907 3.692c-4.043 2.583-16.943 10.393-18.282 11.068-1.189.599-2.702 1.513-12.938 7.813-2.242 1.38-4.116 2.615-4.164 2.744-.1.271-.205.238 4.562 1.403 2 .489 3.982.888 4.406.888.425 0 2.08-.553 3.68-1.228 6.877-2.907 7.975-3.323 8.58-3.252.633.074.631.081-.195.924-.458.468-1.672 2.28-2.699 4.028-1.964 3.347-2.94 4.847-4.558 7.017-.85 1.139-.943 1.404-.675 1.93.504.99 2.88 3.783 3.39 3.985.258.102 3.887.939 8.064 1.86 8.003 1.763 10.202 2.001 12.732 1.375 1.514-.374 13.321-5.434 27.35-11.722 10.628-4.763 17.36-7.588 17.592-7.381.284.255-13.897 10.849-17.454 13.039-.695.428-1.264.833-1.264.901 0 .067.602.051 1.338-.037 1.6-.19 6.981.259 9.588.8 4.786.994 10.23 3.394 13.404 5.91 1.381 1.094 2.617 1.992 2.745 1.992.23 0 1.209-2.208 2.401-5.413 1.402-3.767 2.187-8.538 1.897-11.518-.108-1.108-.264-2.17-.345-2.36-.082-.191-.026-.346.124-.346.384 0 1.899 3.326 2.591 5.69.32 1.093.768 3.337.997 4.986.228 1.649.469 3.047.536 3.107.282.252 9.729-6.389 9.725-6.836-.005-.51-2.912-3.785-5.049-5.69-2.312-2.059-5.935-4.662-8.59-6.171a127.56 127.56 0 0 1-2.854-1.67c-1.499-.914-6.534-3.033-9.884-4.16-4.684-1.575-13.267-3.618-19.538-4.652-1.972-.325-3.586-.691-3.586-.815 0-.516 10.848-19.346 11.26-19.543 1.768-.847 13.199-1.772 22.07-1.786 9.319-.015 13.621.399 21.512 2.069 12.593 2.666 23.054 7.713 31.227 15.066 6.06 5.452 9.534 10.348 11.618 16.377 1.256 3.632 1.52 5.044 1.762 9.43l.195 3.514.945-1.679c2.935-5.209 4.433-12.766 3.775-19.032-.717-6.829-2.574-12.155-6.07-17.417-.398-.598-1.924-2.606-2.099-2.761-.079-.069-.876-.938-1.772-1.931-5.941-6.577-15.479-12.34-24.857-15.016-6.748-1.926-14.657-3.024-21.961-3.05-2.978-.01-5.415-.075-5.415-.144 0-.186 2.163-1.157 3.938-1.768 3.955-1.362 17.247-2.107 25.119-1.408 2.445.217 4.565.46 4.711.541.146.081.262.056.256-.056-.016-.314-2.093-1.419-5.193-2.764-1.547-.671-3.256-1.463-3.798-1.761-1.423-.782-7.331-2.946-11.281-4.132-3.968-1.191-10.788-2.622-13.611-2.856-4.112-.34-11.259 1.043-19.253 3.728-2.7.906-4.952 1.61-5.005 1.562-.16-.144 1.246-2.725 2.089-3.834a95.013 95.013 0 0 1 5.56-6.655 604.49 604.49 0 0 0 2.967-3.251 49.528 49.528 0 0 1 1.266-1.367c5.817-5.662 8.541-8.455 8.245-8.455-.203 0-1.825.6-3.604 1.333Zm35.639 10.923c-.316.47-3.011 6.722-3.007 6.978.004.267 7.007 3.778 7.197 3.608.088-.08-3.786-10.544-3.966-10.712-.047-.043-.147.013-.224.126Zm28.042 3.605c.631 3.58.798 5.407.817 8.937.018 3.406-.078 4.378-.62 6.293-1.285 4.54-3.01 8.601-4.622 10.884-.413.586-.752 1.14-.752 1.232 0 .092.754.096 1.675.01 4.76-.445 15.383 1.09 20.753 3 2.126.755 8.561 3.557 10.003 4.355.572.316 1.037.481 1.032.366-.025-.626-6.034-8.657-13.248-17.706-1.38-1.731-2.821-3.544-3.201-4.028a162.318 162.318 0 0 0-1.891-2.333 609.42 609.42 0 0 1-3.58-4.406c-2.252-2.795-5.254-6.28-6.124-7.108-.345-.328-.377-.262-.242.504Zm-78.026 36.265c-1.469.1-3.305.197-4.078.215l-1.407.033-1.028 1.569a57.989 57.989 0 0 0-1.763 2.891c-.861 1.55-1.142 1.458 3.223 1.057 1.742-.16 3.294-.453 3.922-.74 1.622-.74 6.757-4.608 6.757-5.089 0-.225-1.682-.206-5.626.064Zm13.361 2.325a473.923 473.923 0 0 1-9.564 4.774 2661.87 2661.87 0 0 0-6.609 3.188l-4.269 2.072c-1.187.577-2.494 1.288-2.905 1.581l-.746.532 3.046.464c4.68.711 12.926 2.579 17.345 3.929 12.933 3.949 23.567 9.528 31.628 16.591 1.488 1.304 2.663 2.155 2.73 1.977.249-.652.976-3.408 1.378-5.221.974-4.388 1.132-6.065 1.127-11.958-.004-5.4-.083-6.444-.748-9.819-.408-2.077-.936-4.348-1.172-5.046l-.43-1.271-2.889-.812c-6.522-1.835-14.006-3.12-20.047-3.441l-2.812-.15-5.063 2.61Zm69.895-1.876c0 .157.918.834 2.04 1.503 5.948 3.551 9.887 6.368 15.209 10.875 2.433 2.06 9.362 8.312 10.312 9.303a94.748 94.748 0 0 0 2.056 2.026c2.201 2.117 4.48 4.745 6.22 7.175.199.277.643.9.988 1.384l.628.882-.166-3.273c-.091-1.8-.35-4.009-.575-4.909-1.577-6.296-2.098-7.652-4.333-11.282-1.406-2.283-4.408-5.509-6.642-7.138-3.526-2.57-9.186-4.692-15.624-5.857-4.049-.733-10.113-1.146-10.113-.689Zm4.892 11.271c.403 1.695 1.578 10.816 1.579 12.255.001 2.176 1.205 9.341 2.103 12.517.411 1.454 1.381 4.343 2.156 6.419 1.27 3.406 2.183 5.43 5.169 11.455.848 1.712 2.876 6.208 3.34 7.406.267.689.568.283 1.288-1.741 1.366-3.835 1.97-6.459 2.524-10.952.317-2.573-.298-9.58-1.119-12.739-2.266-8.717-6.762-16.103-13.751-22.588-1.019-.945-2.214-1.953-2.657-2.24l-.805-.522.173.73Zm-35.269 1.426c0 .063.319 1.008.708 2.1 1.446 4.054 1.907 6.723 1.93 11.176.024 4.466-.34 6.729-1.627 10.145-.376.997-.766 2.175-.866 2.617-.1.442-.617 1.314-1.148 1.936-.531.623-.966 1.235-.966 1.36 0 .427-5.63 5.83-8.042 7.717-2.144 1.677-6.855 4.798-8.457 5.602-.743.373-.976.191-.658-.514 1.185-2.633 4.954-14.694 4.671-14.948-.082-.073-1.451.794-3.043 1.926a190.466 190.466 0 0 1-6.269 4.222c-1.857 1.19-4.153 2.714-5.103 3.386-.95.672-1.81 1.223-1.911 1.223-.671 0-9.038 6.204-13.061 9.685-4.233 3.664-7.833 7.753-10.507 11.936-3.141 4.913-5.774 11.747-6.948 18.03-.181.969-.587 3.051-.903 4.625-.58 2.895-.776 7.749-.464 11.48.132 1.575.219 1.783.847 2.014.385.143.892.402 1.127.578.753.562 1.186.098 1.886-2.022 2.962-8.971 9.522-17.495 19.145-24.88 1.808-1.387 8.191-5.516 8.528-5.516.096 0 1.603-.805 3.348-1.789 1.744-.984 4.881-2.571 6.969-3.526 3.982-1.821 4.268-1.961 7.619-3.741 2.159-1.147 6.487-3.676 8.695-5.08 1.289-.82 5.697-4.164 7.735-5.868a35.16 35.16 0 0 1 2.04-1.576c2.939-2.04 6.856-8.174 8.244-12.91.523-1.784.439-8.058-.142-10.574-1.272-5.514-4.77-11.27-9.689-15.945-1.092-1.038-3.688-3.057-3.688-2.869Zm30.879 33.464c-5.137 5.764-8.851 10.455-10.666 13.472-.483.803-1.7 2.739-2.705 4.302-1.005 1.564-1.754 2.908-1.666 2.987.305.273 5.608-2.811 7.89-4.589 5.77-4.494 7.919-8.17 9.029-15.44.241-1.578.386-2.916.323-2.973-.063-.057-1.056.952-2.205 2.241Zm-106.4 2.356c-2.902.486-9.456 2.123-12.517 3.128a519.86 519.86 0 0 1-4.781 1.54l-2.391.755-2.813-.414c-1.547-.228-3.012-.51-3.257-.627-.245-.117-2.27-.62-4.5-1.119-2.23-.498-4.277-.965-4.548-1.038-.271-.072-.492-.028-.492.099 0 .318 4.178 5.169 4.666 5.417 1.023.52 9.414 3.198 10.021 3.198.378 0 2.12-.457 3.87-1.016 5.85-1.868 13.974-3.672 19.874-4.413 5.98-.751 16.216-.278 24.831 1.147 2.401.398 2.52.338 1.289-.646-2.906-2.324-7.359-4.262-12.514-5.446-2.937-.675-3.758-.753-8.862-.842-4.195-.074-6.198-.003-7.876.277Zm15.316 11.478c-3.33 3.452-6.897 10.651-8.276 16.706-.558 2.455-.87 8.998-.575 12.084.253 2.647.28 2.608 1.622-2.391.966-3.598 2.905-8.628 4.24-10.998.376-.667 1.032-2.005 1.458-2.975.426-.969.931-1.932 1.122-2.14.192-.207.397-.491.456-.629.422-.991 2.411-3.619 4.818-6.367.735-.839 1.336-1.582 1.336-1.652 0-.182-3.139-1.862-4.271-2.286-.953-.357-.964-.353-1.93.648Zm66.534 2.373c-6.67 4.757-11.375 9.54-14.156 14.391-1.754 3.061-4.809 10.241-4.482 10.534.141.126 6.33-5.128 12.48-10.591 5.431-4.825 7.355-7.602 9.069-13.092.71-2.273.969-3.651.688-3.65-.123.001-1.743 1.084-3.599 2.408Zm32.346.544c-2.846 2.396-10.553 7.621-11.241 7.621-.089 0-.697.305-1.352.677-1.461.832-9.327 4.781-12.581 6.317-9.152 4.32-16.031 9.809-21.528 17.178-1.894 2.538-4.616 6.951-4.625 7.498-.002.179.976-.34 2.175-1.153 4.267-2.893 9.93-6 15.15-8.311 5.178-2.292 13.831-6.348 16.141-7.565 9.379-4.941 14.769-10.138 18.006-17.36 1.055-2.354 2.423-6.528 2.201-6.715-.053-.044-1.109.772-2.346 1.813Zm-57.969 17.4c-3.663 2.134-8.638 6.211-12.366 10.134-6.468 6.806-10.815 15.777-11.514 23.766-.097 1.108-.241 2.213-.319 2.455-.101.313.087.513.651.694.436.139 1.137.428 1.559.64 1.517.765 5.242.97 6.968.383 2.302-.783 4.506-1.875 5.108-2.53.257-.28.747-.509 1.09-.509.342 0 1.38-.453 2.307-1.007.927-.554 1.875-1.007 2.107-1.007.568 0 2.55-1.012 2.709-1.383.07-.164-.049-.967-.265-1.786-.58-2.199-.785-8.013-.435-12.334.494-6.098 2.607-14.632 4.386-17.711.62-1.073.105-1.023-1.986.195Z" fill="#fff"/></svg>