<?xml version="1.0" standalone="no"?>
<!DOCTYPE svg PUBLIC "-//W3C//DTD SVG 20010904//EN"
 "http://www.w3.org/TR/2001/REC-SVG-20010904/DTD/svg10.dtd">
<svg version="1.0" xmlns="http://www.w3.org/2000/svg"
 width="250.000000pt" height="250.000000pt" viewBox="0 0 250.000000 250.000000"
 preserveAspectRatio="xMidYMid meet">
<metadata>
Created by potrace 1.14, written by Peter Selinger 2001-2017
</metadata>
<g transform="translate(0.000000,250.000000) scale(0.100000,-0.100000)"
fill="#000000" stroke="none">
<path d="M1503 2223 c-41 -62 -231 -378 -228 -381 1 -1 25 -4 52 -7 28 -2 69
-8 91 -14 44 -9 42 -11 56 50 3 14 8 44 11 65 3 21 10 62 15 89 6 28 13 68 16
90 11 70 18 70 51 -2 64 -140 116 -261 155 -358 22 -55 43 -104 47 -108 12
-12 40 89 46 166 l6 68 -77 97 c-43 53 -111 137 -151 185 l-72 88 -18 -28z"/>
<path d="M875 2143 c3 -32 8 -76 10 -98 2 -22 7 -83 11 -135 3 -52 7 -96 8
-97 0 0 30 20 65 47 35 26 104 69 153 95 l89 47 -163 99 c-89 54 -166 99 -171
99 -4 0 -5 -26 -2 -57z"/>
<path d="M1164 1912 c-108 -54 -260 -153 -284 -186 -21 -29 -100 -156 -99
-159 0 -1 -3 -31 -7 -66 -5 -49 -13 -70 -30 -85 -12 -12 -116 -77 -230 -146
l-208 -124 41 -12 c51 -15 60 -14 141 22 17 7 32 11 32 9 0 -3 -19 -35 -41
-71 -40 -63 -41 -66 -24 -84 17 -19 61 -35 130 -48 79 -15 108 -7 319 86 115
51 210 91 212 89 3 -3 -69 -59 -134 -103 l-35 -24 29 -1 c72 -2 142 -23 195
-59 l44 -30 18 41 c10 23 21 66 24 97 l6 56 14 -38 c7 -21 14 -52 15 -67 1
-16 5 -29 8 -29 11 0 90 62 90 70 0 15 -63 72 -118 107 -69 45 -160 78 -274
102 -51 10 -92 23 -91 27 3 18 93 172 107 183 29 24 295 29 406 7 138 -27 212
-58 312 -133 91 -69 155 -171 160 -257 1 -17 3 -35 6 -39 6 -11 28 34 38 75
29 131 -11 256 -113 354 -114 108 -239 152 -473 164 -24 1 -24 2 -4 10 12 4
39 11 60 15 50 8 232 8 244 0 6 -3 10 -3 10 0 0 9 -122 62 -198 85 -91 29
-169 35 -234 20 -29 -7 -54 -13 -55 -12 -2 1 -18 -5 -37 -13 -20 -8 -40 -15
-47 -15 -16 0 41 74 118 153 36 37 63 70 61 72 -3 3 -49 -17 -104 -43z"/>
<path d="M1588 1805 c-17 -37 -12 -47 30 -59 26 -9 27 -6 7 40 -8 19 -14 37
-14 40 2 19 -9 9 -23 -21z"/>
<path d="M1885 1722 c0 -74 -4 -95 -26 -140 l-26 -52 40 0 c67 0 169 -21 225
-47 30 -13 56 -22 58 -20 6 6 -259 347 -269 347 -1 0 -2 -39 -2 -88z"/>
<path d="M1089 1442 c-38 -2 -48 -7 -58 -28 -15 -34 -16 -33 24 -30 19 2 51
16 70 30 39 30 41 33 23 32 -7 -1 -34 -2 -59 -4z"/>
<path d="M1148 1375 c-145 -74 -162 -84 -132 -83 42 1 168 -32 273 -72 67 -26
194 -97 211 -119 3 -3 13 -12 22 -20 16 -12 19 -10 29 15 16 41 21 179 8 246
-13 64 -14 65 -141 88 -116 21 -123 20 -270 -55z"/>
<path d="M1940 1437 c0 -2 28 -23 63 -45 88 -58 229 -184 286 -257 l24 -30 -7
55 c-21 160 -128 257 -304 275 -34 3 -62 4 -62 2z"/>
<path d="M1990 1282 c4 -26 10 -74 14 -107 3 -33 13 -81 20 -107 20 -64 98
-238 108 -238 24 0 42 163 26 235 -20 86 -93 202 -159 253 -14 11 -15 7 -9
-36z"/>
<path d="M1640 1291 c16 -32 21 -142 8 -194 -7 -27 -27 -66 -47 -89 -34 -40
-150 -132 -157 -125 -2 2 7 36 20 75 14 40 21 72 16 72 -5 0 -64 -37 -132 -82
-137 -93 -230 -179 -272 -253 -47 -86 -87 -270 -70 -327 9 -29 32 -21 43 14
24 71 123 191 206 248 22 15 87 51 145 80 118 59 254 146 298 190 101 101 93
257 -19 371 -42 43 -55 49 -39 20z"/>
<path d="M1909 939 c-52 -60 -124 -169 -112 -169 12 0 87 54 111 80 27 30 55
101 50 126 -2 14 -14 6 -49 -37z"/>
<path d="M804 934 c-49 -13 -100 -27 -114 -30 -14 -3 -54 1 -90 9 -36 9 -67
13 -69 11 -11 -10 47 -53 90 -67 44 -14 51 -14 140 10 101 28 276 39 357 24
64 -13 59 4 -11 33 -89 38 -187 41 -303 10z"/>
<path d="M1022 827 c-42 -44 -75 -137 -79 -217 -2 -64 -1 -70 8 -45 31 83 76
175 107 213 19 24 33 44 31 46 -2 2 -14 8 -25 14 -18 9 -25 7 -42 -11z"/>
<path d="M1696 815 c-94 -71 -160 -154 -178 -223 -7 -25 0 -22 46 18 100 87
126 115 145 155 31 65 27 80 -13 50z"/>
<path d="M1988 786 c-24 -19 -105 -65 -178 -103 -141 -71 -217 -130 -272 -210
-16 -25 -28 -46 -26 -48 2 -3 28 10 58 28 30 18 84 45 120 61 203 89 284 149
327 243 14 30 23 56 21 59 -3 2 -25 -11 -50 -30z"/>
<path d="M1384 594 c-30 -25 -69 -60 -84 -77 -66 -73 -122 -237 -89 -258 26
-16 70 -9 138 22 l67 31 1 101 c0 74 6 119 21 165 11 34 16 62 11 62 -4 0 -34
-21 -65 -46z"/>
</g>
</svg>
