<svg xmlns="http://www.w3.org/2000/svg" xmlns:xlink="http://www.w3.org/1999/xlink" viewBox="0 0 1920 1043.05" preserveAspectRatio="none"><defs><style>.cls-1{fill:url(#linear-gradient);}</style><linearGradient id="linear-gradient" x1="170.32" y1="901.67" x2="1501.62" y2="178.82" gradientUnits="userSpaceOnUse"><stop offset="0" stop-color="#c80a13"/><stop offset="0.58" stop-color="#ab0409"/><stop offset="1" stop-color="#940000"/></linearGradient></defs><title>bg</title><g id="Layer_2" data-name="Layer 2"><g id="Layer_1-2" data-name="Layer 1"><path class="cls-1" d="M74.11,972.5c36,27.74,71,71.1,111,67.41,27.78-2.57,53.5-28.08,79.33-48.66,115.38-92,248.94-88.52,363.1,9.34,21,18,42.12,39.48,65,42.12,29.29,3.39,56.87-24.36,84-46.57,115-94.11,248.37-94.69,363.58-1.58,28.59,23.1,57.63,52.28,88.39,48.09,23.63-3.23,45.3-25.92,67-44.81,100.42-87.32,217-97.83,320.92-28.93,36,23.83,71.12,57.06,108.91,62,65,8.58,122.89-63.56,184.38-92.29l.1,0a17.69,17.69,0,0,0,10.2-16c0-211.06-.5-400.37-.5-559.6,0-95-158.5-148-450.5-148C960.5,215,960,0,960,0H0V930.11a9,9,0,0,0,6.43,8.61C29.57,945.67,52.49,955.85,74.11,972.5Z"/></g></g></svg>
